<svg xmlns="http://www.w3.org/2000/svg" width="743" height="466"><path fill="#000065" d="M703 1h29v441l-5-2-2.73-.96c-8.28-3.1-15.8-6.92-21.27-14.04-4.85-11.22-3.09-25.68-2.79-37.59.1-5.19.07-10.38.05-15.57q0-13.48.2-26.95c.2-12.99.26-25.97.29-38.96q.08-31.6.44-63.21.33-30.7.5-61.4l.01-3.82.1-19c.24-52.5.67-105 1.2-157.5"/><path fill="#0077ba" d="M646 1h29v406a66 66 0 0 1-10.48-5.22l-3.09-1.88-3.18-1.96-3.23-1.97c-7.87-4.82-7.87-4.82-9.02-5.97q-.14-3.1-.12-6.2v-41.12l.01-24.83.02-35.9a155718 155718 0 0 1 .04-114.8v-21.01z"/><path fill="#0084ce" d="M589 1h29l1 371a64 64 0 0 1-10.45-5.22l-3.07-1.88-3.17-1.96-6.26-3.85-2.8-1.72C591.08 356 591.08 356 589 355z"/><path fill="#1991d4" d="M531 1h30v336l-11-6-5.15-2.14c-5.44-2.42-10.2-5.06-13.85-9.86-3.29-8.91-2.45-18.91-2.2-28.28.08-3.9.05-7.78.03-11.68q0-10.1.16-20.2c.16-9.74.2-19.47.23-29.21q.07-23.7.35-47.4.25-23.01.39-46.02l.01-2.87.07-14.25Q530.36 60.04 531 1"/><path fill="#329dd9" d="M475 1h29l1 301-11-6-5.15-2.25c-6.1-2.84-12.29-5.87-14.92-12.4-1.62-7.47-1.36-15.06-1.14-22.67.09-3.46.06-6.93.04-10.4q0-8.97.16-17.96c.16-8.66.2-17.32.23-25.98q.07-21.07.35-42.16.26-20.46.39-40.93l.01-2.55.07-12.68q.31-52.5.96-105.02"/><path fill="#4da9dd" d="M417 1h30v266c-4-1.6-6.91-3.1-10.45-5.44l-3.07-2.02-3.17-2.1-6.26-4.13-2.8-1.85C419.1 250 419.1 250 417 249z"/><path fill="#66b5e1" d="M360 1h30v230a56 56 0 0 1-10.2-5.19l-2.91-1.86-3.01-1.95-3.04-1.95A737 737 0 0 1 360 213c-.3-2.83-.4-5.45-.36-8.29v-2.63q-.01-4.38.02-8.77v-6.26q0-8.55.04-17.06l.02-17.81q0-16.88.06-33.75.05-19.2.07-38.4.04-39.52.15-79.03"/><path fill="#80c2e7" d="M303 1h29v196l-11-7-4.95-1.9c-5.59-2.26-9.85-4.87-13.05-10.1-3.2-11.88-2.15-24.77-1.83-36.96.12-4.93.13-9.85.15-14.78q.1-13.98.38-27.96c.2-10.61.3-21.22.4-31.84q.29-32.73.9-65.46"/><path fill="#0078bb" d="M646 213h29v194a66 66 0 0 1-10.48-5.22l-3.09-1.88-6.41-3.93c-7.87-4.82-7.87-4.82-9.02-5.97q-.14-3.42-.12-6.84v-14.75l.02-14.25v-14.88l.03-28.18.02-32.09z"/><path fill="#000065" d="M703 1h29v159h-29z"/><path fill="#006" d="M246 1h30v159a62 62 0 0 1-9.69-4.71l-2.61-1.58-2.7-1.65-2.7-1.63-4.98-3.02c-2.32-1.47-2.32-1.47-4.93-2.64-2.39-1.77-2.39-1.77-3-4.36v-3.16l-.01-3.63.05-4v-4.2q0-5.7.06-11.4.04-5.95.04-11.91a4906 4906 0 0 1 .11-22.57q.08-12.84.1-25.7.1-26.4.26-52.84"/><path fill="#0085cf" d="M589 213h29l1 159a64 64 0 0 1-10.45-5.22l-3.07-1.88-3.17-1.96-6.26-3.85-2.8-1.72C591.08 356 591.08 356 589 355z"/><path fill="#1a90d3" d="M532 212h29v125l-11-6-5.19-2.35c-12.32-5.95-12.32-5.95-14.8-12.11-1.47-7.28-.77-14.63-.26-21.98q.15-3.56.25-7.1.26-7.43.65-14.84c.38-7.65.54-15.3.65-22.96l.05-3.72.1-7.26c.13-8.9.35-17.79.55-26.68"/><path fill="#006" d="M189 1h29v124c-3.89-1.55-6.78-3-10.23-5.22l-2.93-1.88-3.03-1.96-5.98-3.85-2.66-1.72c-2.1-1.38-2.1-1.38-4.17-2.37z"/><path fill="#000065" d="M132 1h29v89a280 280 0 0 1-20.12-11.81l-2.29-1.48c-5.43-3.55-5.43-3.55-6.59-4.71q-.14-3.3-.11-6.63v-2.1l.02-11.67.02-12.58.02-12.83z"/><path fill="#0069a5" d="M703 89h29v71h-29z"/><path fill="#000065" d="M417 196a66 66 0 0 1 10.2 5l2.91 1.75 8.96 5.38 2.65 1.6c2.33 1.39 2.33 1.39 5.28 2.27v55c-4-1.6-6.91-3.1-10.45-5.44l-3.07-2.02-3.17-2.1-6.26-4.13-2.8-1.85C419.1 250 419.1 250 417 249z"/><path fill="#006" d="M360 160a61 61 0 0 1 9.69 4.71l2.61 1.58 2.7 1.65 2.7 1.63 4.98 3.02c2.32 1.46 2.32 1.46 4.93 2.67 2.39 1.74 2.39 1.74 3 4.15l-.04 2.89v3.27l-.08 3.54-.02 3.61q-.06 5.74-.16 11.47l-.07 7.76q-.07 9.52-.24 19.05a55 55 0 0 1-10.2-5.19l-2.91-1.86-3.01-1.95-3.04-1.95A737 737 0 0 1 360 213c-.36-2.25-.36-2.25-.34-5.1v-3.2l.05-3.49.01-3.56q.03-5.64.1-11.28l.03-7.63q.06-9.38.15-18.74"/><path fill="#000065" d="M246 89a53 53 0 0 1 10.45 5.44l3.07 2.02 3.17 2.1 9.05 5.98c2.17 1.46 2.17 1.46 4.26 2.46v53a62 62 0 0 1-9.69-4.71l-2.61-1.58-2.7-1.65-2.7-1.63-4.98-3.02c-2.32-1.46-2.32-1.46-4.93-2.67-2.39-1.74-2.39-1.74-3-4.15l.04-2.89v-3.27l.08-3.54.02-3.61q.06-5.74.16-11.47l.07-7.76q.07-9.53.24-19.05"/><path fill="#006" d="M531 1h30v53h-30z"/><path fill="#000065" d="M417 1h30v53h-30z"/><path fill="#006" d="M360 1h30v53h-30z"/><path fill="#000065" d="M531 267a49 49 0 0 1 11.33 5l2.92 1.75 3 1.81 8.6 5.16q2.04 1.2 4.15 2.28v54l-11-6-5.19-2.27c-5.3-2.48-10.15-5.05-13.81-9.73-3.04-8.5-1.79-17.92-1.19-26.75q.14-3.67.26-7.35.32-8.97.93-17.9M303 125l2.33.95c2.65 1.1 2.65 1.1 5.44 1.78 7.73 2.11 15.54 5.24 20.2 12.05 7.27 15.74 2.4 40.43 1.03 57.22l-2.07-1.36c-4.53-2.95-8.97-5.75-13.9-8-5.07-2.47-9.64-5.02-13.03-9.64-2.9-8.7-1.7-18.26-1.12-27.25l.24-7.5q.3-9.13.88-18.25M646 336q4.15 2.33 8.2 4.82a65 65 0 0 0 8.34 4.14c4.9 2.27 9.27 4.57 12.46 9.04 2.77 8.69 1.6 18.23 1.06 27.19l-.23 7.5q-.29 9.16-.83 18.31a64 64 0 0 1-10.48-5.22l-3.09-1.88-6.41-3.93c-7.87-4.82-7.87-4.82-9.02-5.97q-.14-2.53-.11-5.07v-3.28l.01-3.56v-3.63l.05-19.31zM589 301a52 52 0 0 1 9.47 4.71l2.48 1.58 2.55 1.65 5.03 3.21 2.24 1.44a25 25 0 0 0 4.83 2.67c2.4 1.74 2.4 1.74 3.04 4.15l.02 2.89.06 3.27-.01 3.54.04 3.61q.06 5.74.06 11.47l.08 7.76q.1 9.53.11 19.05a63 63 0 0 1-10.45-5.22l-3.07-1.88-3.17-1.96-6.26-3.85-2.8-1.72C591.08 356 591.08 356 589 355zM475 231l2.65.9q3.04 1.01 6.13 1.85c7.42 2.2 14.78 5.42 19.22 12.05 7.14 15.63 3 39.49 2 56.2l-2.05-1.15a152 152 0 0 0-14.14-7.1c-5.31-2.48-10.17-5.04-13.81-9.75-3.05-8.66-1.78-18.26-1.19-27.25q.15-3.75.26-7.5.32-9.13.93-18.25M190 56c6.48 1.4 11.3 4.45 16.81 8.06l5.08 3.29 2.25 1.47c1.85 1.22 1.85 1.22 3.86 2.18v54c-3.89-1.55-6.78-3-10.23-5.22l-2.93-1.88-3.03-1.96-5.98-3.85-2.66-1.72c-2.1-1.38-2.1-1.38-4.17-2.37l-.08-29.14-.02-10.6-.01-3.37v-3.1l-.01-2.73C189 57 189 57 190 56"/><path fill="#006" d="M646 160h29v53h-29z"/><path fill="#000065" d="M589 160h29v53h-29zM646 1h29v53h-29zM589 1h29v53h-29zM475 1h29v53h-29zM303 1h29v53h-29z"/><path fill="#99ceec" d="M246 54h30v53c-4-1.6-6.91-3.1-10.45-5.44l-3.07-2.02-3.17-2.1-6.26-4.13-2.8-1.85C248.1 90 248.1 90 246 89z"/><path fill="#000065" d="M75 1h29l1 54-11-6-5.23-1.95C83.07 44.72 78.27 42.41 75 37c-3.01-11.35-1.03-24.5 0-36M18 1h29v18a68 68 0 0 1-10.23-5l-2.93-1.75-3.03-1.81-5.98-3.57-2.66-1.6A70 70 0 0 0 18 3z"/><path fill="#b5ddf1" d="M191 54h27v17c-5.1-2.04-9.4-4.52-14.06-7.37l-2.43-1.47-2.36-1.43-2.12-1.3C195 58 195 58 191 54"/></svg>